<?xml version="1.0" encoding="utf-8" ?>
<svg xmlns="http://www.w3.org/2000/svg" xmlns:xlink="http://www.w3.org/1999/xlink" width="384" height="384">
	<path fill="#EDF6F9" transform="matrix(0.75 0 0 0.75 -6.10352e-05 0)" d="M0 0L0 512L512 512L512 0L0 0Z"/>
	<path fill="#00004D" transform="matrix(0.75 0 0 0.75 -6.10352e-05 0)" d="M257.302 114.971L256.856 115.071C255.318 115.323 253.73 114.783 252.471 113.91C248.615 111.235 248.955 105.683 248.505 101.517C247.844 95.3849 246.065 87.6086 254.637 86.2198C260.767 85.6116 264.394 89.943 264.113 95.6414C263.982 98.3021 263.419 100.935 263.126 103.582C262.612 108.209 262.849 113.282 257.302 114.971Z"/>
	<path fill="#00004D" transform="matrix(0.75 0 0 0.75 -6.10352e-05 0)" d="M298.101 125.682C295.949 126.413 293.597 126.26 291.735 124.843C286.358 120.753 291.14 113.24 293.111 108.815C295.34 103.814 295.462 99.7962 301.97 99.1359C307.379 98.7254 312.594 104.369 310.495 109.698C309.921 111.154 308.944 112.437 308.023 113.687L303.864 119.264C302.034 121.889 301.219 124.3 298.101 125.682Z"/>
	<path fill="#00004D" transform="matrix(0.75 0 0 0.75 -6.10352e-05 0)" d="M215.879 126.023C210.999 125.271 209.471 121.405 206.98 117.746C205.518 115.599 203.795 113.485 202.59 111.183C199.701 105.661 202.968 99.9182 209.017 99.2524C216.296 98.7935 217.417 104.812 219.781 110.103C221.801 114.623 225.457 120.295 220.741 124.629C219.323 125.933 217.708 126.092 215.879 126.023Z"/>
	<path fill="#00004D" transform="matrix(0.75 0 0 0.75 -6.10352e-05 0)" d="M319.015 145.561C311.644 146.283 308.386 139.126 312.878 133.896C314.065 132.514 315.531 131.373 316.846 130.117C320.443 126.68 322.622 123.033 327.941 122.611C331.466 122.76 334.897 124.968 335.62 128.619C336.862 134.889 331.647 137.191 327.442 140.283C324.697 142.302 322.521 144.947 319.015 145.561Z"/>
	<path fill="#00004D" transform="matrix(0.75 0 0 0.75 -6.10352e-05 0)" d="M194.485 145.978C190.519 146.045 187.49 142.726 184.527 140.526C182.46 138.991 179.88 137.595 178.184 135.653C174.116 130.995 176.884 123.953 183.019 122.951C187.495 122.357 190.42 125.688 193.432 128.415C195.556 130.341 197.941 132.295 199.605 134.64C203.156 139.648 200.334 145.288 194.485 145.978Z"/>
	<path fill="#00004D" transform="matrix(0.75 0 0 0.75 -6.10352e-05 0)" d="M259.98 141.364C255.679 141.203 251.539 141.326 247.297 142.069C226.318 145.75 211.452 164.069 211.461 185.146C211.462 186.398 211.411 187.712 211.562 188.956L212.158 193.241C212.786 197.627 211.018 201.983 206.165 202.75L205.395 202.857C193.254 203.96 195.312 180.755 196.859 173.481C202.686 146.089 224.233 127.868 251.673 125.865C254.793 125.786 257.98 125.682 261.091 125.906C292.316 128.153 315.765 154.046 315.833 184.948C315.843 189.383 315.765 195.193 313.342 199.082C309.658 204.996 301.037 203.642 299.578 196.59L299.544 196.417C299.103 194.25 299.984 191.484 300.19 189.268C302.456 165.014 284.434 143.539 259.98 141.364Z"/>
	<path fill="#00004D" transform="matrix(0.75 0 0 0.75 -6.10352e-05 0)" d="M332.378 171.456C325.65 172.269 321.322 166.116 324.867 160.781C326.35 158.547 328.765 157.676 331.16 156.747L336.674 154.687C338.491 154.024 340.307 153.187 342.206 152.81C351.128 151.802 354.185 164.114 347.137 167.714C344.615 169.002 335.241 171.047 332.378 171.456Z"/>
	<path fill="#00004D" transform="matrix(0.75 0 0 0.75 -6.10352e-05 0)" d="M181.886 171.575C180.017 171.774 178.158 171.404 176.337 171.027L171.181 169.884C169.033 169.372 166.638 168.975 164.706 167.859C158.425 164.232 159.7 154.682 167.003 153.042C169.891 152.776 171.831 153.644 174.506 154.609L181.421 157.223C182.627 157.725 183.963 158.245 185.028 159.005C190.359 162.805 188.508 170.462 181.886 171.575Z"/>
	<path fill="#00004D" transform="matrix(0.75 0 0 0.75 -6.10352e-05 0)" d="M349.146 203.928C348.128 203.923 347.079 203.736 346.069 203.599L340.608 202.818C337.779 202.442 334.698 202.359 331.954 201.601C323.81 199.352 323.837 187.545 334.748 187.116L345.468 187.146C347.135 187.148 348.994 186.993 350.632 187.217C354.882 187.798 358.187 192.016 357.502 196.298L357.473 196.476C356.867 200.517 353.305 203.88 349.146 203.928Z"/>
	<path fill="#00004D" transform="matrix(0.75 0 0 0.75 -6.10352e-05 0)" d="M176.402 202.313L166.881 203.577C163.37 203.941 159.953 203.91 157.093 201.564C151.733 197.167 153.868 187.944 161.955 187.228C163.066 187.101 164.208 187.155 165.323 187.153L176.23 187.15C180.617 187.166 184.725 188.627 185.472 193.677L185.497 193.861C186.342 199.792 181.057 201.533 176.402 202.313Z"/>
	<path fill="#00004D" transform="matrix(0.75 0 0 0.75 -6.10352e-05 0)" d="M310.997 253.657C310.563 253.726 309.715 253.549 309.213 253.542L305.167 253.581C296.84 254.044 290.114 257.971 282.917 261.735C267.364 269.869 248.69 270.797 232.619 263.31L223.222 258.397C212.213 252.652 200.32 251.577 188.714 256.577C183.296 258.911 178.325 262.014 172.664 263.832C164.663 266.401 156.799 266.231 148.533 265.799L148.642 250.033L155.475 250.067C166.1 250.064 169.974 248.485 179.358 243.785C186.559 240.177 193.782 238.074 201.849 237.664C204.422 237.653 207.019 237.567 209.583 237.813C218.905 238.704 226.967 242.71 235.093 247.055C248.708 254.336 263.056 254.389 276.637 247.371C279.255 246.018 281.739 244.401 284.392 243.125C300.327 235.462 316.814 235.972 332.473 243.713C346.044 250.421 348.332 250.501 363.537 250.41L363.563 264.487C363.571 264.995 363.633 265.57 363.545 266.069L357.966 266.142C351.595 266.367 345.878 266.004 339.672 264.104C329.394 260.958 322.455 254.41 310.997 253.657Z"/>
	<path fill="#00004D" transform="matrix(0.75 0 0 0.75 -6.10352e-05 0)" d="M207.163 286.731C198.572 286.092 190.8 289.156 183.278 292.972C180.393 294.436 177.586 296.033 174.521 297.104C166.34 299.967 157.242 300.351 148.672 299.677C148.421 296.088 148.618 292.365 148.622 288.762L148.631 285.253C148.633 284.706 148.566 284.071 148.702 283.541C153.982 284.066 159.904 284.222 165.112 283.188C175.202 281.186 183.722 273.995 194.536 271.853C198.444 271.078 201.596 270.93 205.604 270.943C214.793 270.974 223.47 274.12 231.548 278.298C238.792 282.044 243.535 285.879 252.276 285.973C265.5 286.115 268.865 285.138 280.466 278.664C288.753 274.038 296.065 271.489 305.467 270.903C317.001 270.925 322.555 272.398 333.263 277.82C344.352 283.437 351.266 285.077 363.51 284.069L363.558 300.14L355.655 300.145C346.777 300.145 340.105 298.612 331.942 294.673C325.078 291.361 318.633 287.426 310.83 286.721C302.864 286.002 295.787 288.118 288.806 291.985L281.268 296.273C275.532 299.172 268.728 301.245 262.275 301.413L254.864 301.439C248.367 301.432 243.105 300.778 236.883 298.502C225.493 294.335 220.525 287.88 207.163 286.731Z"/>
	<path fill="#252B67" transform="matrix(0.75 0 0 0.75 -6.10352e-05 0)" d="M87.8307 454.777L87.8307 343.836L66.8955 343.836L66.8955 331L125.422 331L125.422 343.836L105.098 343.836L105.098 454.777L87.8307 454.777ZM150.789 456C143.862 456 138.513 454.65 134.744 451.95C130.974 449.251 128.351 445.278 126.874 440.031C125.397 434.785 124.658 428.341 124.658 420.7L124.658 400.529C124.658 392.685 125.422 386.165 126.95 380.969C128.479 375.774 131.153 371.852 134.973 369.203C138.793 366.554 144.065 365.23 150.789 365.23C158.226 365.23 163.702 366.758 167.216 369.814C170.731 372.87 173.049 377.276 174.169 383.032C175.29 388.788 175.85 395.69 175.85 403.738L175.85 410.921L141.009 410.921L141.009 428.647C141.009 432.212 141.34 435.116 142.002 437.357C142.665 439.598 143.734 441.254 145.211 442.323C146.689 443.393 148.599 443.928 150.942 443.928C153.387 443.928 155.246 443.342 156.52 442.171C157.793 440.999 158.659 439.318 159.117 437.128C159.576 434.937 159.805 432.365 159.805 429.411L159.805 424.062L175.697 424.062L175.697 427.424C175.697 436.287 173.813 443.266 170.043 448.359C166.274 453.453 159.856 456 150.789 456ZM141.009 402.057L159.805 402.057L159.805 394.111C159.805 390.444 159.601 387.362 159.194 384.866C158.786 382.37 157.946 380.485 156.672 379.212C155.399 377.939 153.387 377.302 150.636 377.302C147.988 377.302 145.976 377.913 144.6 379.136C143.225 380.358 142.283 382.421 141.773 385.325C141.264 388.228 141.009 392.227 141.009 397.32L141.009 402.057ZM191.131 454.777L191.131 366.452L207.482 366.452L207.482 378.983C210.742 373.584 214.002 369.967 217.262 368.133C220.522 366.3 223.783 365.383 227.042 365.383C227.45 365.383 227.832 365.383 228.188 365.383C228.544 365.383 229.029 365.434 229.64 365.535L229.64 383.567C228.417 383.058 227.016 382.625 225.438 382.268C223.859 381.912 222.255 381.733 220.624 381.733C218.077 381.733 215.76 382.319 213.671 383.491C211.583 384.662 209.52 386.929 207.482 390.291L207.482 454.777L191.131 454.777ZM239.726 454.777L239.726 366.452L254.854 366.452L254.854 374.857C257.808 371.495 261.069 368.999 264.634 367.369C268.199 365.739 271.866 364.924 275.636 364.924C278.896 364.924 281.825 365.739 284.423 367.369C287.021 368.999 288.88 371.903 290.001 376.079C293.159 372.208 296.597 369.381 300.315 367.598C304.033 365.816 307.93 364.924 312.005 364.924C314.858 364.924 317.456 365.612 319.799 366.987C322.141 368.362 324.027 370.553 325.453 373.558C326.879 376.563 327.592 380.511 327.592 385.401L327.592 454.777L312.617 454.777L312.617 386.471C312.617 382.192 311.929 379.314 310.554 377.837C309.178 376.36 307.319 375.621 304.976 375.621C302.734 375.621 300.392 376.258 297.947 377.531C295.502 378.805 293.26 380.562 291.223 382.803C291.223 383.211 291.223 383.618 291.223 384.026C291.223 384.433 291.223 384.892 291.223 385.401L291.223 454.777L276.248 454.777L276.248 386.471C276.248 382.192 275.56 379.314 274.185 377.837C272.809 376.36 270.95 375.621 268.607 375.621C266.365 375.621 264.049 376.258 261.654 377.531C259.259 378.805 256.993 380.562 254.854 382.803L254.854 454.777L239.726 454.777ZM356.932 456C353.468 456 350.412 455.007 347.763 453.02C345.115 451.034 343.026 448.487 341.498 445.38C339.97 442.272 339.206 438.987 339.206 435.523C339.206 430.022 340.123 425.387 341.957 421.617C343.79 417.848 346.312 414.664 349.521 412.067C352.73 409.469 356.448 407.202 360.676 405.266C364.904 403.331 369.36 401.446 374.047 399.612L374.047 393.347C374.047 389.782 373.844 386.827 373.436 384.484C373.028 382.141 372.187 380.384 370.914 379.212C369.641 378.04 367.731 377.455 365.184 377.455C362.942 377.455 361.134 377.964 359.759 378.983C358.384 380.002 357.391 381.453 356.779 383.338C356.168 385.223 355.862 387.438 355.862 389.985L355.862 394.417L339.664 393.806C339.868 384.026 342.109 376.818 346.388 372.183C350.667 367.548 357.288 365.23 366.254 365.23C375.014 365.23 381.229 367.624 384.897 372.412C388.564 377.2 390.398 384.128 390.398 393.194L390.398 433.537C390.398 436.287 390.474 438.936 390.627 441.483C390.78 444.03 390.983 446.398 391.238 448.589C391.494 450.779 391.723 452.842 391.926 454.777L376.95 454.777C376.645 453.147 376.263 451.084 375.804 448.589C375.346 446.093 375.014 443.826 374.811 441.789C373.792 445.252 371.831 448.487 368.928 451.492C366.024 454.497 362.025 456 356.932 456ZM363.35 441.941C364.981 441.941 366.509 441.483 367.935 440.566C369.36 439.649 370.635 438.605 371.755 437.433C372.875 436.262 373.639 435.32 374.047 434.606L374.047 409.545C371.5 410.971 369.107 412.398 366.865 413.824C364.623 415.25 362.663 416.753 360.982 418.332C359.301 419.911 357.976 421.694 357.009 423.68C356.041 425.667 355.557 427.934 355.557 430.48C355.557 434.046 356.219 436.848 357.543 438.885C358.868 440.923 360.803 441.941 363.35 441.941ZM406.596 454.777L406.596 366.452L422.947 366.452L422.947 378.983C426.206 373.584 429.467 369.967 432.727 368.133C435.986 366.3 439.247 365.383 442.507 365.383C442.915 365.383 443.297 365.383 443.653 365.383C444.009 365.383 444.493 365.434 445.105 365.535L445.105 383.567C443.882 383.058 442.481 382.625 440.902 382.268C439.324 381.912 437.719 381.733 436.089 381.733C433.541 381.733 431.225 382.319 429.136 383.491C427.047 384.662 424.984 386.929 422.947 390.291L422.947 454.777L406.596 454.777Z"/>
</svg>
