<?xml version="1.0" encoding="utf-8" ?>
<svg xmlns="http://www.w3.org/2000/svg" xmlns:xlink="http://www.w3.org/1999/xlink" width="383" height="383">
	<path fill="#EDF6F9" transform="scale(0.748047 0.748047)" d="M0 0L0 512L512 512L512 0L0 0Z"/>
	<path fill="#052659" transform="scale(0.748047 0.748047)" d="M258.172 123.34L257.428 123.506C254.862 123.928 252.213 123.026 250.114 121.571C243.681 117.109 244.249 107.847 243.498 100.897C242.395 90.6693 239.428 77.6979 253.727 75.3814C263.952 74.3668 270.002 81.5919 269.533 91.0972C269.314 95.5354 268.375 99.9277 267.886 104.342C267.029 112.06 267.424 120.523 258.172 123.34Z"/>
	<path fill="#052659" transform="scale(0.748047 0.748047)" d="M326.228 141.207C322.637 142.427 318.715 142.17 315.608 139.808C306.638 132.985 314.616 120.453 317.904 113.072C321.621 104.729 321.824 98.0277 332.681 96.9262C341.703 96.2415 350.403 105.656 346.901 114.545C345.945 116.973 344.315 119.113 342.777 121.198L335.84 130.501C332.788 134.879 331.428 138.901 326.228 141.207Z"/>
	<path fill="#052659" transform="scale(0.748047 0.748047)" d="M189.076 141.776C180.936 140.521 178.387 134.073 174.231 127.969C171.793 124.388 168.918 120.862 166.909 117.022C162.09 107.811 167.539 98.2312 177.629 97.1207C189.771 96.3551 191.641 106.394 195.585 115.22C198.955 122.76 205.051 132.222 197.186 139.451C194.821 141.625 192.126 141.89 189.076 141.776Z"/>
	<path fill="#052659" transform="scale(0.748047 0.748047)" d="M361.114 174.367C348.817 175.571 343.383 163.633 350.876 154.908C352.856 152.602 355.302 150.7 357.496 148.605C363.496 142.871 367.131 136.788 376.002 136.085C381.883 136.332 387.606 140.016 388.812 146.106C390.883 156.565 382.184 160.404 375.17 165.563C370.591 168.931 366.962 173.343 361.114 174.367Z"/>
	<path fill="#052659" transform="scale(0.748047 0.748047)" d="M153.389 175.062C146.774 175.173 141.721 169.637 136.779 165.967C133.331 163.407 129.027 161.079 126.197 157.839C119.411 150.069 124.029 138.323 134.262 136.651C141.729 135.66 146.609 141.217 151.632 145.767C155.176 148.978 159.154 152.237 161.929 156.15C167.853 164.503 163.145 173.911 153.389 175.062Z"/>
	<path fill="#052659" transform="scale(0.748047 0.748047)" d="M262.639 167.365C255.465 167.098 248.559 167.302 241.482 168.542C206.488 174.681 181.691 205.239 181.707 240.397C181.707 242.486 181.623 244.678 181.874 246.753L182.868 253.9C183.916 261.216 180.967 268.481 172.873 269.761L171.588 269.94C151.336 271.78 154.768 233.072 157.349 220.939C167.069 175.247 203.01 144.854 248.783 141.513C253.986 141.38 259.302 141.207 264.493 141.581C316.578 145.328 355.692 188.52 355.806 240.067C355.822 247.465 355.692 257.155 351.651 263.642C345.505 273.508 331.124 271.25 328.691 259.486L328.635 259.198C327.898 255.584 329.367 250.968 329.713 247.272C333.493 206.815 303.429 170.994 262.639 167.365Z"/>
	<path fill="#052659" transform="scale(0.748047 0.748047)" d="M383.404 217.562C372.181 218.917 364.961 208.653 370.874 199.754C373.349 196.028 377.377 194.574 381.371 193.026L390.57 189.589C393.601 188.484 396.629 187.086 399.798 186.458C414.681 184.777 419.779 205.314 408.023 211.319C403.817 213.468 388.18 216.879 383.404 217.562Z"/>
	<path fill="#052659" transform="scale(0.748047 0.748047)" d="M132.372 217.759C129.256 218.091 126.155 217.475 123.117 216.846L114.516 214.938C110.934 214.085 106.938 213.423 103.716 211.562C93.239 205.51 95.3643 189.581 107.547 186.844C112.364 186.401 115.601 187.849 120.063 189.46L131.597 193.819C133.609 194.657 135.837 195.525 137.613 196.791C146.507 203.13 143.419 215.904 132.372 217.759Z"/>
	<path fill="#052659" transform="scale(0.748047 0.748047)" d="M411.374 271.726C409.676 271.719 407.925 271.407 406.241 271.177L397.132 269.876C392.413 269.248 387.273 269.11 382.697 267.846C369.111 264.093 369.157 244.398 387.357 243.683L405.239 243.733C408.019 243.737 411.121 243.477 413.852 243.851C420.943 244.821 426.454 251.856 425.313 259L425.263 259.295C424.254 266.037 418.312 271.646 411.374 271.726Z"/>
	<path fill="#052659" transform="scale(0.748047 0.748047)" d="M123.225 269.032L107.343 271.141C101.487 271.748 95.787 271.697 91.0171 267.784C82.0752 260.448 85.6361 245.064 99.1273 243.869C100.98 243.658 102.885 243.749 104.745 243.744L122.938 243.74C130.256 243.767 137.108 246.204 138.354 254.627L138.396 254.934C139.805 264.827 130.99 267.732 123.225 269.032Z"/>
	<path fill="#052659" transform="scale(0.748047 0.748047)" d="M347.738 354.678C347.015 354.793 345.599 354.497 344.762 354.486L338.014 354.551C324.123 355.323 312.905 361.874 300.899 368.153C274.957 381.721 243.806 383.268 216.999 370.78L201.325 362.585C182.96 353.002 163.121 351.208 143.762 359.549C134.725 363.442 126.434 368.618 116.99 371.65C103.644 375.936 90.5254 375.653 76.7372 374.932L76.9195 348.634L88.3183 348.689C106.041 348.684 112.503 346.051 128.155 338.21C140.168 332.192 152.216 328.684 165.673 328.001C169.964 327.983 174.297 327.839 178.573 328.249C194.122 329.736 207.571 336.418 221.125 343.666C243.836 355.81 267.77 355.898 290.424 344.192C294.79 341.936 298.935 339.238 303.359 337.111C329.94 324.328 357.441 325.179 383.563 338.09C406.2 349.279 410.017 349.414 435.38 349.262L435.422 372.744C435.435 373.591 435.539 374.55 435.393 375.382L426.086 375.504C415.458 375.879 405.922 375.273 395.57 372.105C378.426 366.856 366.851 355.933 347.738 354.678Z"/>
	<path fill="#052659" transform="scale(0.748047 0.748047)" d="M174.536 409.848C160.206 408.782 147.241 413.892 134.695 420.257C129.882 422.7 125.2 425.363 120.088 427.151C106.442 431.925 91.2658 432.567 76.969 431.443C76.5503 425.456 76.8801 419.246 76.8869 413.236L76.9014 407.382C76.9052 406.47 76.7926 405.41 77.0202 404.527C85.8266 405.402 95.7048 405.662 104.392 403.938C121.223 400.599 135.435 388.603 153.473 385.03C159.993 383.738 165.25 383.49 171.936 383.512C187.263 383.564 201.738 388.811 215.213 395.781C227.296 402.03 235.207 408.426 249.788 408.583C271.846 408.82 277.46 407.19 296.81 396.391C310.635 388.675 322.831 384.423 338.515 383.445C357.755 383.483 367.019 385.938 384.879 394.984C403.377 404.352 414.91 407.089 435.333 405.408L435.415 432.214L422.231 432.222C407.421 432.223 396.293 429.666 382.676 423.095C371.227 417.57 360.475 411.007 347.46 409.831C334.172 408.631 322.367 412.161 310.722 418.612L298.149 425.764C288.581 430.599 277.232 434.058 266.468 434.338L254.105 434.381C243.268 434.369 234.49 433.278 224.112 429.482C205.112 422.531 196.825 411.764 174.536 409.848Z"/>
</svg>
